<?xml version="1.0" encoding="UTF-8" standalone="no"?>
<svg
   xmlns:dc="http://purl.org/dc/elements/1.1/"
   xmlns:cc="http://creativecommons.org/ns#"
   xmlns:rdf="http://www.w3.org/1999/02/22-rdf-syntax-ns#"
   xmlns:svg="http://www.w3.org/2000/svg"
   xmlns="http://www.w3.org/2000/svg"
   xmlns:sodipodi="http://sodipodi.sourceforge.net/DTD/sodipodi-0.dtd"
   xmlns:inkscape="http://www.inkscape.org/namespaces/inkscape"
   id="svg2"
   viewBox="0 0 9 28"
   height="28"
   width="9"
   version="1.1"
   sodipodi:docname="photo.svg"
   inkscape:version="0.92.1 r15371">
  <sodipodi:namedview
     pagecolor="#ffffff"
     bordercolor="#666666"
     borderopacity="1"
     objecttolerance="10"
     gridtolerance="10"
     guidetolerance="10"
     inkscape:pageopacity="0"
     inkscape:pageshadow="2"
     inkscape:window-width="1024"
     inkscape:window-height="704"
     id="namedview7"
     showgrid="false"
     inkscape:zoom="33.5"
     inkscape:cx="7"
     inkscape:cy="26.38478"
     inkscape:window-x="0"
     inkscape:window-y="27"
     inkscape:window-maximized="1"
     inkscape:current-layer="svg2" />
  <defs
     id="defs3053" />
  <metadata
     id="metadata8">
    <rdf:RDF>
      <cc:Work
         rdf:about="">
        <dc:format>image/svg+xml</dc:format>
        <dc:type
           rdf:resource="http://purl.org/dc/dcmitype/StillImage" />
        <dc:title></dc:title>
      </cc:Work>
    </rdf:RDF>
  </metadata>
  <rect
     width="14"
     height="14"
     x="0"
     y="14"
     id="canvas"
     style="visibility:hidden;fill:none;stroke:none" />
  <g
     id="g57"
     transform="matrix(1,0,0,1.04031,-2.234375,-0.05632305)">
    <g
       id="g50">
      <path
         sodipodi:type="star"
         style="opacity:1;fill:#d40000;fill-opacity:1"
         id="path28"
         sodipodi:sides="3"
         sodipodi:cx="6.734375"
         sodipodi:cy="8.9127398"
         sodipodi:r1="4.598928"
         sodipodi:r2="2.299464"
         sodipodi:arg1="-2.6179939"
         sodipodi:arg2="-1.5707963"
         inkscape:flatsided="false"
         inkscape:rounded="0"
         inkscape:randomized="0"
         d="m 2.7515865,6.6132759 3.9827886,-10e-8 3.9827879,-1e-7 -1.9913938,3.4491963 -1.9913941,3.449196 -1.9913944,-3.449196 z"
         inkscape:transform-center-y="1.149732" />
      <circle
         style="opacity:1;fill:#ffffff;fill-opacity:1;stroke-width:1.72903216"
         id="path45"
         cx="6.734375"
         cy="4.554141"
         r="4" />
      <path
         style="opacity:1;fill:#d40000;fill-opacity:1;stroke-width:0.99257839"
         d="m 6.734375,0.05414085 a 4.5,4.5 0 0 0 -4.5,4.49999995 4.5,4.5 0 0 0 4.5,4.5 4.5,4.5 0 0 0 4.5,-4.5 4.5,4.5 0 0 0 -4.5,-4.49999995 z m 0,0.5 a 4,4 0 0 1 4,3.99999995 4,4 0 0 1 -4,4 4,4 0 0 1 -4,-4 4,4 0 0 1 4,-3.99999995 z"
         id="path15"
         inkscape:connector-curvature="0" />
    </g>
    <path
       id="photo"
       style="fill:#d40000;fill-opacity:1;stroke:none;stroke-width:0.38825014"
       d="M 4.7441212,3.3756309 C 4.006673,3.3822791 4.006673,3.4585669 4.0070142,4.1548401 l 0.00573,2.3461902 c -0.00607,0.7637501 -0.00607,0.7637501 0.743586,0.7772822 l 3.9297967,-0.014114 c 0.7560527,5.82e-4 0.7560527,5.82e-4 0.7756279,-0.7832441 L 9.4612453,4.1575803 C 9.4421748,3.3822791 9.4421748,3.3822791 8.6858744,3.3791373 Z M 7.112674,3.7765957 c 0.8576985,0 1.5530006,0.695302 1.5530006,1.5530005 0,0.8576985 -0.6953021,1.5530005 -1.5530006,1.5530005 -0.8576985,0 -1.5530005,-0.695302 -1.5530005,-1.5530005 0,-0.8576985 0.695302,-1.5530005 1.5530005,-1.5530005 z m -2.3358581,-1.1780823 0.4009648,-10e-8 c 0.3818928,0.00727 0.3818928,0.3955157 0.3941533,0.585327 L 4.4144492,3.196555 C 4.3949231,2.994029 4.3949231,2.6057789 4.7768159,2.5985134 Z M 8.085797,5.3382877 c 0,0.5360615 -0.4345638,0.9706256 -0.9706254,0.9706256 -0.5360617,0 -0.9706255,-0.4345638 -0.9706253,-0.9706256 0,-0.5360616 0.4345637,-0.9706253 0.9706253,-0.9706253 0.5360615,0 0.9706254,0.4345638 0.9706254,0.9706253 z M 7.5013783,2.2107173 7.4947283,3.221843 9.4482396,3.215663 9.4548896,2.166217 C 9.4421748,1.8292786 9.4421748,1.8292786 9.0607389,1.8300361 l -1.14959,0.00477 C 7.5009242,1.8292786 7.5009242,1.8292786 7.5013783,2.2107173 Z m 0.4282016,0.018768 1.1311695,-0.00665 0.013002,0.7710289 L 7.942,3.0000442 Z"
       inkscape:connector-curvature="0" />
  </g>
</svg>
